{"title":"Newton 2017 Hindi 720p BluRay x264 ESub [MW]","magnet":"magnet:?xt=urn:btih:2534f78e70aaa9342cc8ea958012707be4fff1df&dn=Newton+2017+Hindi+720p+BluRay+x264+ESub+%5BMW%5D&tr=udp%3A%2F%2Ftracker.leechers-paradise.org%3A6969&tr=udp%3A%2F%2Fzer0day.ch%3A1337&tr=udp%3A%2F%2Fopen.demonii.com%3A1337&tr=udp%3A%2F%2Ftracker.coppersurfer.tk%3A6969&tr=udp%3A%2F%2Fexodus.desync.com%3A6969","uploader":"MFreaky","categoryP":"video","categoryS":"hd___movies","size":"1281650687","seeders":"30","leechers":"31","description":" <a href=\"https://pichub.site/image/DTXf5\" rel=\"nofollow\" target=\"_NEW\">https://pichub.site/image/DTXf5</a> <a href=\"\nhttps://pichub.site/image/DTnhh\" rel=\"nofollow\" target=\"_NEW\">\nhttps://pichub.site/image/DTnhh</a> <a href=\"\nhttps://pichub.site/image/DTsrj\" rel=\"nofollow\" target=\"_NEW\">\nhttps://pichub.site/image/DTsrj</a> <a href=\"\nhttps://pichub.site/image/DT1Vk\" rel=\"nofollow\" target=\"_NEW\">\nhttps://pichub.site/image/DT1Vk</a> <a href=\"\nhttps://pichub.site/image/DT3Wr\" rel=\"nofollow\" target=\"_NEW\">\nhttps://pichub.site/image/DT3Wr</a>\r\n\r\nIMDB <a href=\"\nhttps://www.imdb.com/title/tt6484982/\" rel=\"nofollow\" target=\"_NEW\">\nhttps://www.imdb.com/title/tt6484982/</a>\r\n\r\nVideo\r\nID : 1\r\nFormat : AVC\r\nFormat/Info : Advanced Video Codec\r\nFormat profile : High@L4.1\r\nFormat settings : CABAC / 4 Ref Frames\r\nFormat settings, CABAC : Yes\r\nFormat settings, RefFrames : 4 frames\r\nCodec ID : V_MPEG4/ISO/AVC\r\nDuration : 1 h 44 min\r\nBit rate : 1 500 kb/s\r\nWidth : 1 280 pixels\r\nHeight : 536 pixels\r\nDisplay aspect ratio : 2.40:1\r\nFrame rate mode : Constant\r\nFrame rate : 24.000 FPS\r\nColor space : YUV\r\nChroma subsampling : 4:2:0\r\nBit depth : 8 bits\r\nScan type : Progressive\r\nBits/(Pixel*Frame) : 0.091\r\nStream size : 1.09 GiB (91%)\r\nWriting library : x264 core 155 r2901 7d0ff22\r\nDefault : Yes\r\nForced : No\r\n\r\nAudio\r\nID : 2\r\nFormat : AAC\r\nFormat/Info : Advanced Audio Codec\r\nFormat profile : HE-AAC / LC\r\nFormat settings : Explicit\r\nCodec ID : A_AAC-2\r\nDuration : 1 h 44 min\r\nBit rate : 127 kb/s\r\nChannel(s) : 2 channels\r\nChannel positions : Front: L R\r\nSampling rate : 48.0 kHz / 24.0 kHz\r\nFrame rate : 23.438 FPS (1024 SPF)\r\nCompression mode : Lossy\r\nStream size : 94.9 MiB (8%)\r\nLanguage : Hindi\r\nDefault : Yes\r\nForced : No","last_updated":"2018-09-11T12:13:33.743Z","parsed":{"xt":"urn:btih:2534f78e70aaa9342cc8ea958012707be4fff1df","dn":"Newton 2017 Hindi 720p BluRay x264 ESub [MW]","tr":["udp://exodus.desync.com:6969","udp://open.demonii.com:1337","udp://tracker.coppersurfer.tk:6969","udp://tracker.leechers-paradise.org:6969","udp://zer0day.ch:1337"],"infoHash":"2534f78e70aaa9342cc8ea958012707be4fff1df","infoHashBuffer":{"type":"Buffer","data":[37,52,247,142,112,170,169,52,44,200,234,149,128,18,112,123,228,255,241,223]},"name":"Newton 2017 Hindi 720p BluRay x264 ESub [MW]","announce":["udp://exodus.desync.com:6969","udp://open.demonii.com:1337","udp://tracker.coppersurfer.tk:6969","udp://tracker.leechers-paradise.org:6969","udp://zer0day.ch:1337"],"urlList":[]}}